# xmcd
#
# Track frame offsets: 
#        300
#        10700
#        20675
#        33972
#        46707
#        59658
#        71543
#        83158
#        95974
#        108343
#        121358
#        133153
#        146654
#        157446
#        167391
#        178049
#        189603
#        201184
#        214997
#        228318
#
# Disc length: 3189 seconds
#
# Revision: 0
# Processed by: cddbd v1.5.2PL0 Copyright (c) Steve Scherf et al.
# Submitted via: ExactAudioCopy v0.99pb5
#
DISCID=260c7114
DTITLE=Japan  Collections - Savage Night Sax ( Hits On The Sax )  
DYEAR=1968
DGENRE=Instrumental
TTITLE0=The evening rhapsody ( Вечерняя рапсодия )
TTITLE1=Sunrise ( Восход солнца )
TTITLE2=On lake ( По озеру )
TTITLE3=Meetings under the moon ( Встречи при луне )
TTITLE4=Disturbing my thoughts ( Тревожные мысли мои )
TTITLE5=Glowworms ( Светлячки )
TTITLE6=Lilies ( Лилии ) 
TTITLE7=As I and you ( Как я и ты )
TTITLE8=Do not forget ( Не забывай )
TTITLE9=Moonlight ( Лунный свет )
TTITLE10=We together ( Мы вдвоем )
TTITLE11=Magic ( Волшебство )
TTITLE12=On foot along a stream ( Пешком вдоль ручья )
TTITLE13=Autumn park ( Осенний парк )
TTITLE14=Lullaby to leaves ( Колыбельная листьям )
TTITLE15=Casual sight ( Случайный взгляд )
TTITLE16=I can not think up that or ( Не могу придумать что либо )
TTITLE17=Years young ( Годы молодые )
TTITLE18=Sing washing the pigeon to me ( Спой моя голуба мне )
TTITLE19=Fine line ( Прекрасная линия ) 
EXTD=Домашняя Звукозапись ( Music Records )
EXTT0=
EXTT1=
EXTT2=
EXTT3=
EXTT4=
EXTT5=
EXTT6=
EXTT7=
EXTT8=
EXTT9=
EXTT10=
EXTT11=
EXTT12=
EXTT13=
EXTT14=
EXTT15=
EXTT16=
EXTT17=
EXTT18=
EXTT19=
PLAYORDER=
